<svg width="201" height="26" viewBox="0 0 201 26" fill="none" xmlns="http://www.w3.org/2000/svg">
<path fill-rule="evenodd" clip-rule="evenodd" d="M0.955725 25.2561C0.8646 25.1176 0.682349 24.9791 0.500099 24.84C0.500099 4.06729 0.500099 4.06729 0.68197 1.15879L0.955725 0.743286C17.1745 0.743286 17.1745 0.743286 20.5457 1.02029C21.0921 1.57429 21.7303 2.12829 22.3682 2.82079C22.6416 3.51329 22.9146 4.20579 23.188 5.03679V8.77572C21.9126 11.6836 21.3658 12.3761 21.3658 12.9301C21.6392 13.2071 21.9126 13.4841 22.2771 13.7606C22.7327 14.5916 23.188 15.4226 23.644 16.3921C23.644 17.7771 23.644 19.1621 23.7351 20.685C23.1883 22.624 23.1883 22.624 22.5505 23.7314C22.2771 24.0084 21.9126 24.2854 21.5481 24.7015C21.0925 24.8394 20.6368 24.9779 20.0901 25.2555L0.955725 25.2561ZM25.375 25.2561L25.1016 24.84V1.29729C25.1927 1.15879 25.2835 1.02029 25.375 0.743286H45.694C46.3318 1.02029 46.9693 1.29729 47.6983 1.71279C48.6096 2.82079 48.6096 2.82079 49.2475 4.34429C49.4293 5.45229 49.4293 5.45229 49.4293 8.77629C49.156 10.1607 49.156 10.1607 48.5185 11.5457C47.8806 12.0997 47.2427 12.6537 46.6048 13.3462L45.238 13.7617C45.6025 13.9002 45.967 14.0387 46.3315 14.3163C46.9693 16.1162 47.6983 17.9167 48.4273 19.8557C47.7895 21.6562 47.0605 23.4562 46.3315 25.2567C39.6801 25.2567 39.6801 25.2567 39.3156 24.9797C38.2221 22.2097 37.0375 19.3017 35.8532 16.3932C35.3976 16.3932 34.942 16.3932 34.3956 16.5317C34.3045 19.3017 34.2133 22.2097 34.0311 25.1182C31.2062 25.117 28.2906 25.117 25.375 25.2561ZM48.4273 25.2561C48.4273 24.9791 48.4273 24.5636 48.3362 24.1481C51.2518 16.3921 54.2586 8.63722 57.2653 0.743286H66.6505C66.8327 0.881786 67.015 1.02029 67.2883 1.15879C69.9306 8.36022 72.5732 15.7001 75.2155 23.0401C75.3066 23.732 75.3977 24.4245 75.58 25.1176C72.7555 25.1176 69.931 25.1176 67.015 25.2561C66.1948 23.8711 65.6481 22.07 65.2836 21.5172H58.9056C58.45 22.0706 57.9032 23.8711 57.0831 25.2561H48.4273ZM80.2266 25.2561C79.3157 24.84 78.313 24.4251 77.311 23.8711L75.9441 21.7936C75.3062 19.8551 75.3062 19.8551 75.124 18.6081C75.124 18.1926 75.124 17.7776 75.2151 17.2236C77.8573 17.2236 80.4996 17.0851 83.2333 16.9466C83.5067 17.2236 83.7797 17.6391 84.1446 18.0546C85.9667 18.0546 87.7892 18.1931 89.6113 18.3316C89.7024 18.1931 89.8847 18.0546 90.0669 17.9161V16.5311C86.5135 16.5311 82.96 16.3926 79.4061 16.2547C77.5839 15.2852 77.584 15.2852 76.6727 14.3163C76.3993 13.7617 76.1259 13.2083 75.7615 12.6543L75.2147 10.1613V7.11487C75.8526 4.62244 75.8526 4.62244 76.4905 3.37594C77.3106 2.68344 78.1303 1.99152 78.9504 1.16052C79.7706 1.02202 80.6818 0.883518 81.5927 0.745017H93.0733C95.2599 1.71452 95.2599 1.71452 96.1712 2.54552C96.5357 3.23802 96.9002 3.92994 97.3558 4.76094C97.5381 5.31494 97.7203 6.00744 97.9026 6.69994C97.9937 8.77745 97.9937 8.77745 97.8114 9.05387H90.7952C90.3399 8.63837 89.8843 8.22345 89.4287 7.66945H84.4172C84.2349 7.80795 84.0527 7.94645 83.8704 8.22345C83.8704 8.63895 83.8704 9.05387 83.7793 9.46995C83.8704 9.60845 83.9616 9.74695 84.1438 9.88545C87.5151 9.88545 90.8863 10.0239 94.3487 10.1619C94.9866 10.3004 95.6244 10.4389 96.2623 10.7159L97.3554 11.5469C97.7199 12.2394 98.0841 12.9319 98.5401 13.6244C99.0868 15.7019 99.0868 15.7019 99.2691 17.9173C99.0868 19.0247 98.9046 20.1327 98.6312 21.3792C97.4466 23.4567 97.4466 23.4567 96.5353 24.4257L94.6217 25.2567L80.2266 25.2561ZM104.008 25.2561C103.917 25.1176 103.826 24.9791 103.643 24.84C103.643 19.5776 103.643 14.3157 103.552 8.91422C102.277 8.91422 101.001 8.77572 99.6347 8.63722V0.882363C105.101 0.882363 110.66 0.882363 116.218 0.743863C116.4 1.15936 116.4 1.15936 116.218 8.77629C115.033 8.91479 113.758 9.05272 112.482 9.19179C112.391 14.4542 112.3 19.7166 112.118 25.1182C109.475 25.117 106.741 25.117 104.008 25.2561ZM118.04 25.2561L117.766 24.84V1.29729C117.857 1.15879 117.949 1.02029 118.04 0.743286C125.603 0.743286 133.165 0.743286 140.819 0.881786V7.80622C140.637 7.94472 140.455 8.08264 140.181 8.22172C135.716 8.22172 131.251 8.22172 126.787 8.08322C126.787 8.77572 126.787 9.46822 126.878 10.1607C130.705 10.1607 134.623 10.2992 138.541 10.4377C138.997 10.9917 138.997 10.9917 140.181 14.4536C140.181 14.8691 140.272 15.4231 140.363 15.9771H128.336C127.88 15.0076 127.333 14.0387 126.787 12.9307C126.787 14.5927 126.787 16.3926 126.696 18.1931C131.342 18.1931 136.081 18.3316 140.818 18.4701V24.9785C140.181 25.2561 140.181 25.2561 118.04 25.2561ZM143.097 25.2561C142.823 25.2561 142.55 25.2561 142.277 25.1176C144.646 13.3462 144.646 13.3462 147.106 2.68286C147.288 2.12886 147.47 1.43636 147.744 0.743863H155.489C156.4 3.79087 157.402 6.97579 158.405 10.1607C158.496 10.1607 158.678 10.1607 158.86 10.0222C161.32 2.40529 161.32 2.40529 162.049 0.743286H170.25C170.341 0.881786 170.432 1.02029 170.614 1.15879C171.981 8.36022 173.439 15.5616 174.897 22.7625V25.117C172.163 25.117 169.43 25.117 166.605 25.2555C166.514 25.117 166.423 24.9785 166.241 24.8394C165.603 22.0694 164.874 19.3 164.145 16.3915C163.234 19.1615 162.322 21.9315 161.32 24.8394C161.23 24.9779 161.047 25.1164 160.865 25.2555H155.854C155.033 23.455 155.033 23.455 153.211 17.3616C153.12 17.4995 152.938 17.638 152.756 17.9156C152.3 20.131 151.845 22.347 151.298 24.7015C151.024 24.8394 150.751 24.9779 150.387 25.2555L143.097 25.2561ZM178.268 25.2561C177.812 25.2561 177.357 25.2561 176.81 25.1176C176.81 17.0851 176.81 8.91479 176.901 0.743863H195.124C197.584 1.71336 197.584 1.71336 198.677 2.54436C199.133 3.37479 199.588 4.20637 200.044 5.03679C200.135 6.00629 200.318 6.97579 200.5 8.08322C200.5 9.05272 200.5 10.0222 200.409 10.9917C200.227 11.6836 200.044 12.3761 199.771 13.0686C199.406 13.7611 199.042 14.4536 198.586 15.1467C198.222 15.4231 197.857 15.7007 197.493 16.1162C196.49 16.2547 195.488 16.3926 194.395 16.6702C185.921 16.6702 185.921 16.6702 185.284 16.9466C185.284 19.5781 185.192 22.3476 185.101 25.1176C182.824 25.117 180.546 25.117 178.268 25.2561ZM9.61185 17.9161C9.61185 17.3621 9.61185 16.6696 9.70297 15.9771H14.2588C14.4411 16.1156 14.6233 16.2541 14.8967 16.3926C14.8967 16.6696 14.8967 17.0851 14.9879 17.5006C14.623 17.7776 14.623 17.7776 9.61185 17.9161ZM61.0922 14.7301C61.3656 13.8996 61.639 12.9301 62.0035 11.9606C62.0946 11.9606 62.2768 11.9606 62.4591 11.8221C62.7325 12.7916 63.0058 13.7606 63.3703 14.8686C62.6413 14.8691 61.9123 14.8691 61.0922 14.7301ZM185.284 10.0222V8.22172C187.288 8.22172 189.384 8.22172 191.48 8.08322C191.753 8.49872 191.753 8.49872 191.753 9.46822C191.662 9.60672 191.571 9.74522 191.389 9.88372C189.384 9.88372 187.379 9.88372 185.284 10.0222ZM34.6686 9.74522C34.4863 9.60672 34.4863 9.60672 34.3041 8.08322H38.86L39.4067 8.49872C39.4067 9.46822 39.4067 9.46822 39.2245 9.74522H34.6686ZM9.61185 9.60672C9.61185 9.05272 9.61185 8.49872 9.70297 7.80622C11.161 7.80622 12.7101 7.80621 14.2588 7.66771C14.35 7.80621 14.5322 7.94472 14.7145 8.08322C14.7145 8.49872 14.7145 8.91422 14.6233 9.46822C12.9831 9.46822 11.3428 9.46822 9.61185 9.60672Z" fill="#868686"/>
</svg>
