<svg width="201" height="46" viewBox="0 0 201 46" fill="none" xmlns="http://www.w3.org/2000/svg">
<path fill-rule="evenodd" clip-rule="evenodd" d="M23.3297 2.46197C17.7846 2.6821 11.9405 4.20751 7.96156 7.25626C2.82497 11.1948 0.295013 17.2903 0.295013 24.0533C0.295013 29.6827 2.18755 35.4061 5.90911 39.293C10.1224 43.6976 16.5744 45.9082 23.3286 45.9082C31.4562 45.9082 35.8732 44.1772 35.8732 44.1772V34.1866C33.1637 35.6076 29.2504 36.1522 29.2504 36.1522C17.5853 37.7851 13.4661 29.3685 13.522 24.7189C13.568 20.9756 13.6731 16.3374 20.5215 13.2835C27.3689 10.2296 35.8732 14.3552 35.8732 14.3552L35.8743 4.408C30.3818 2.41857 25.162 2.38963 23.3297 2.46197ZM163.581 45.7036C174.303 46.7019 185.982 43.7658 185.982 43.7658V7.92802H174.673V37.1878C174.673 37.1878 169.821 37.8234 166.176 37.4771C163.658 37.2374 163.189 36.0168 163.189 32.5506V7.92802H151.876V38.1241C151.876 43.9694 156.747 45.1011 163.581 45.7036ZM103.222 7.7699C92.4994 6.77053 80.8211 9.70663 80.82 9.70663V45.5444H92.1281V26.5585V16.2857C92.1281 16.2857 96.9811 15.6491 100.627 15.9964C103.144 16.2361 103.612 17.4567 103.612 20.9219V45.5444H114.925V15.3494C114.925 9.50304 110.057 8.37138 103.222 7.7699ZM131.097 18.5573C130.608 17.5941 131.189 16.7177 132.336 16.2899C135.096 15.2616 146.43 16.3126 148.197 16.7808V8.38378C142.377 7.5725 136.197 7.09814 131.289 7.74613C129.152 8.0262 127.157 8.30007 125.498 8.79304C118.065 10.9964 115.814 16.6785 118.416 22.0629C118.416 22.0629 119.43 25.0041 127.188 29.2083C129.141 30.2656 134.658 32.9412 135.625 34.694C136.055 35.4691 135.544 36.3899 134.585 36.7651C131.351 38.029 121.618 37.2157 117.367 36.3114V44.7001C122.347 45.653 129.132 46.2544 134.038 45.6127C137.981 45.0939 140.939 44.79 143.82 43.3276C148.199 41.1067 150.595 36.4137 148.351 31.5192C146.626 26.205 132.515 21.3415 131.097 18.5573ZM200.705 45.5124H189.407V0.0891113H200.705V45.5124ZM74.5039 14.3779C70.6443 10.1386 64.2855 7.91045 57.7317 7.91045C51.7583 7.91045 45.8628 9.83788 42.0328 13.4457C38.4076 16.8562 36.6892 21.8035 36.6892 26.9006C36.6892 31.7713 38.2159 36.5853 41.5574 39.9471C45.4093 43.8216 51.5064 45.8886 57.7317 45.8886C63.2001 45.8886 68.7441 44.3766 72.4854 41.2896C76.6954 37.8192 78.7741 32.4534 78.7741 26.9006C78.7741 22.3285 77.4872 17.6572 74.5039 14.3779ZM64.4738 35.0516C62.7171 36.6865 60.2145 37.4854 57.6977 37.4854C55.0768 37.4854 52.4866 36.5367 50.7036 34.7777C48.7333 32.8317 47.7049 29.9224 47.7049 26.8334C47.7049 23.5242 49.052 20.3762 51.2742 18.4219C53.0014 16.9017 55.2838 16.1814 57.6977 16.1814C60.3514 16.1814 62.9679 17.0278 64.7586 18.826C66.6884 20.7679 67.6894 23.7784 67.6894 26.8334C67.6894 30.0351 66.569 33.0983 64.4738 35.0516Z" fill="#868686"/>
</svg>
