<svg width="201" height="46" viewBox="0 0 201 46" fill="none" xmlns="http://www.w3.org/2000/svg">
<g clip-path="url(#clip0)">
<path d="M0.5 45.795H46.4105V0.204834H0.5V45.795ZM29.9324 3.68866C38.0613 6.33157 43.9077 13.96 43.9278 22.9899C43.9478 31.8797 38.2015 39.488 29.9324 42.3111V3.68866ZM23.4452 2.64752C24.9068 2.64752 26.4686 2.82772 27.77 3.10803C27.77 13.4394 17.6989 21.9287 7.32751 21.9287H2.98273C3.70352 11.3371 12.5332 2.64752 23.4452 2.64752ZM7.32751 24.0711C17.7189 24.0711 27.77 32.5604 27.77 42.8918C26.4686 43.1521 24.8268 43.3523 23.4452 43.3523C12.5132 43.3323 3.40319 34.6227 2.98273 24.0711H7.32751Z" fill="#868686"/>
<path d="M61.7874 26.9942V24.1311H71.3379V20.4671H61.7874V15.1412H71.9586V11.4972H57.8831V26.8741C57.8831 30.7584 59.5449 33.4213 63.4492 33.9619C63.5293 33.9819 63.6094 33.9819 63.6695 33.9819H63.7496C64.15 34.022 64.5505 34.062 64.9909 34.062H72.2189V30.418H65.011C63.7696 30.378 61.7874 29.7773 61.7874 26.9942Z" fill="#868686"/>
<path d="M75.002 22.1289V34.042H78.9263V11.4772H75.002V22.1289Z" fill="#868686"/>
<path d="M90.1386 17.2035C85.1932 17.2035 81.4891 20.5872 81.4891 25.853V25.9932C81.4891 31.1388 85.073 34.4625 90.2387 34.4625C92.7214 34.4625 95.044 33.7817 97.1863 31.5393L94.8237 29.2567C93.5824 30.4981 92.361 31.1388 90.3588 31.1388C87.4556 31.1388 85.5135 29.457 85.3934 26.8541H98.2275C98.2875 26.2134 98.2876 25.4926 98.2876 25.4926C98.2876 20.8675 95.044 17.2035 90.1386 17.2035ZM85.4735 24.0911C85.6537 22.1089 87.6759 20.5071 90.1186 20.5071C92.4211 20.5071 94.2831 22.1289 94.2831 24.0911H85.4735Z" fill="#868686"/>
<path d="M109.3 20.6873C111.062 20.6873 112.363 21.328 113.484 22.4693L115.907 19.9665C114.005 17.9643 111.742 17.1434 109.3 17.1434C104.314 17.1434 100.31 20.8075 100.31 25.813C100.31 30.8185 104.294 34.5025 109.28 34.5025C111.722 34.5025 113.985 33.6816 115.887 31.6594L113.464 29.1566C112.343 30.2979 111.042 30.9586 109.28 30.9586C106.397 30.9586 104.194 28.7762 104.194 25.813C104.214 22.8697 106.397 20.6873 109.3 20.6873Z" fill="#868686"/>
<path d="M122.254 26.9944V21.248H125.818V17.7041H122.274V11.4573H118.35V27.2346C118.47 30.8987 120.132 33.4014 123.916 33.922C123.996 33.942 124.076 33.962 124.156 33.962H124.216C124.617 34.0021 125.037 34.0421 125.457 34.0421H125.878V30.3981H125.477C124.236 30.3781 122.254 29.7774 122.254 26.9944Z" fill="#868686"/>
<path d="M132.986 20.1468V17.7242H129.101V34.0421H132.986V25.4527C132.986 22.7697 134.708 21.0678 137.411 21.0678C138.031 21.0678 138.592 21.1279 139.032 21.228V17.4639C138.872 17.4238 138.292 17.3638 137.871 17.3638C135.529 17.3838 133.767 18.465 132.986 20.1468Z" fill="#868686"/>
<path d="M148.603 17.2235C143.617 17.2235 139.633 20.9876 139.633 25.873C139.633 30.7584 143.597 34.5225 148.603 34.5225C153.548 34.5225 157.573 30.7584 157.573 25.873C157.573 20.9876 153.568 17.2235 148.603 17.2235ZM148.603 30.9987C145.7 30.9987 143.517 28.7562 143.517 25.873C143.517 22.9898 145.7 20.7474 148.603 20.7474C151.486 20.7474 153.689 22.9898 153.689 25.873C153.689 28.7562 151.486 30.9987 148.603 30.9987Z" fill="#868686"/>
<path d="M159.975 21.7286V34.0221H163.9V11.4573H159.975V21.7286Z" fill="#868686"/>
<path d="M178.015 27.1945C178.015 29.7774 176.494 30.8786 174.431 30.8786C172.389 30.8786 170.847 29.7774 170.847 27.2346V17.7041H166.903V27.5549C166.903 32.2201 170.327 34.4625 174.391 34.4625C178.496 34.4625 181.96 32.2 181.96 27.4748V22.4493V17.7241H178.015V27.1945Z" fill="#868686"/>
<path d="M196.756 28.8163L194.293 25.3926L197.357 21.268L199.959 17.7241H195.695L192.131 22.6095L188.547 17.7241H184.302L186.725 21.0278L189.968 25.4326L186.565 30.1378L183.742 34.0621H187.946L192.111 28.2957L196.295 34.0621H200.5L196.756 28.8163Z" fill="#868686"/>
</g>
<defs>
<clipPath id="clip0">
<rect width="200" height="45.5901" fill="white" transform="translate(0.5 0.204834)"/>
</clipPath>
</defs>
</svg>
