<svg width="113" height="112" viewBox="0 0 113 112" fill="none" xmlns="http://www.w3.org/2000/svg">
<g clip-path="url(#clip0)">
<path d="M52.4344 2.84343C62.6071 2.01429 73.0102 4.26819 81.9449 9.19226C97.1808 17.4024 107.976 33.4166 109.51 50.6999C110.663 61.3501 108.389 72.3249 103.208 81.6925C98.0234 91.1281 89.9114 98.9423 80.2562 103.721C72.6789 107.542 64.1506 109.471 55.6633 109.284C44.0384 109.186 32.5286 105.027 23.4284 97.8082C15.5969 91.5951 9.53915 83.1751 6.22259 73.7365C1.05148 59.2215 2.57438 42.4424 10.463 29.183C15.7594 19.9914 23.9255 12.5122 33.4759 7.90963C39.4118 5.07026 45.8689 3.31384 52.4344 2.84343ZM43.0093 7.90963C33.8346 10.3869 25.2691 15.7848 19.8272 23.67C16.1621 28.8547 14.0537 34.9937 12.9708 41.2071C12.4564 45.0855 12.2432 49.3158 14.1823 52.8591C15.0791 54.6189 16.646 55.9489 17.4177 57.776C18.152 59.3974 17.6309 61.5904 16.0504 62.514C14.5681 63.577 12.4733 63.1705 11.1331 62.0639C9.20072 60.5481 8.38174 58.0742 7.96886 55.7391C7.15326 50.48 8.21252 45.1599 9.55268 40.0836C8.50357 40.5202 8.65586 41.972 8.2599 42.8925C5.96878 51.7761 5.9857 61.2723 8.4968 70.1086C10.8692 78.5488 15.712 86.3871 22.7038 91.7606C27.9697 95.9269 34.4235 98.2959 40.955 99.5785C44.8943 100.242 49.1787 100.506 52.8709 98.7121C54.7018 97.795 56.0724 96.1973 57.8657 95.226C59.3754 94.4412 61.3417 94.6981 62.5224 95.9435C63.8866 97.3043 63.9103 99.6357 62.8 101.159C61.6023 102.79 59.6729 103.697 57.7679 104.221C53.5647 105.274 49.1682 104.8 44.962 104.035C43.4221 103.792 41.9635 103.108 40.3899 103.112C41.2325 103.944 42.4678 104.09 43.5541 104.415C51.8083 106.448 60.5701 106.462 68.8374 104.486C78.3509 102.198 87.3529 96.844 93.0043 88.732C96.666 83.6963 98.683 77.6791 99.9288 71.6348C100.592 67.171 100.927 62.1248 98.216 58.2329C96.9537 56.375 94.9262 54.5881 95.3326 52.1074C95.5052 49.7892 98.101 48.3239 100.233 49.0786C103.018 49.9821 104.321 52.967 104.89 55.6135C105.972 61.096 104.896 66.7311 103.448 72.0406C103.827 71.9831 104.06 71.7699 104.148 71.4044C106.646 63.6071 107.079 55.1973 105.637 47.1495C103.982 37.7177 99.6232 28.5193 92.3711 22.1129C88.019 18.1432 82.6546 15.3445 76.9826 13.7979C72.2586 12.3934 67.1446 11.4218 62.268 12.6303C59.8685 13.1549 58.0038 14.8368 56.0819 16.2481C54.4541 17.5036 51.8482 17.5882 50.3795 16.0348C49.0562 14.627 49.1781 12.2986 50.3185 10.8164C51.8343 8.81965 54.3424 7.89576 56.7317 7.46596C60.5457 6.89741 64.4444 7.26967 68.2076 8.02097C69.7001 8.27817 71.094 8.96518 72.6139 9.07686C72.2992 8.81288 71.9912 8.51846 71.5919 8.39324C62.3874 5.42222 52.3159 5.31054 43.0093 7.90963Z" fill="#3C3C3C"/>
<path d="M44.2681 26.7767C46.3258 25.6938 48.9553 25.3689 51.0535 26.5128C52.7321 27.4739 53.3887 29.5552 53.2228 31.3928C52.925 35.041 51.1618 38.405 48.9452 41.2545C46.5491 44.1514 43.5947 46.7167 40.0548 48.0907C40.3255 49.221 41.1783 50.4254 42.4576 50.419C44.6979 50.5002 46.6405 49.0856 48.2514 47.6778C49.4088 46.7979 49.4697 45.258 50.0112 44.016C50.7997 42.0735 51.8725 40.0023 53.8286 39.0209C54.7457 38.5336 56.1468 38.4388 56.7797 39.4169C57.4701 40.7367 56.844 42.2495 56.1807 43.4441C55.2737 45.1768 53.8388 46.5339 52.6983 48.094C52.2685 49.5425 52.1906 51.0654 52.1636 52.568C53.7474 51.8675 55.1688 50.8691 56.6612 50.0027C59.2569 48.3242 61.9508 46.7606 64.3604 44.8181C64.6375 43.8807 64.2588 42.8586 64.3028 41.884C64.1539 37.1663 65.7851 32.3303 69.0002 28.8411C71.0002 26.7327 74.0125 25.2471 76.9565 25.9882C78.7234 26.3097 80.1076 27.7446 80.6047 29.4334C81.2342 31.9817 80.361 34.6451 79.0205 36.8144C76.7128 40.4254 73.3557 43.1835 69.9579 45.7217C70.4114 46.852 71.0578 48.1346 72.2791 48.5543C74.0288 48.2193 75.8092 47.7421 77.5995 48.0974C78.7975 48.3479 80.2358 48.7066 80.8213 49.9012C81.3628 51.0654 80.3275 52.2566 79.2645 52.6188C77.0039 53.3565 74.6112 52.9403 72.3032 52.7643C69.5555 53.4208 67.1659 55.2382 65.4535 57.4518C62.7938 60.9477 61.9714 65.574 62.5498 69.8618C63.1018 73.4186 64.8883 77.0025 68.0292 78.9349C71.5654 81.199 76.6624 80.7188 79.5932 77.6625C82.3581 74.8092 83.2312 70.2676 81.691 66.6024C81.0379 64.9915 79.6334 63.6179 77.874 63.3438C75.8197 62.8798 73.3794 64.2165 73.0819 66.3994C72.7837 68.078 73.9618 69.4689 74.9564 70.6703C75.725 71.4659 75.8163 72.9343 74.862 73.6213C73.3831 74.6332 71.3322 73.9229 70.1545 72.7482C67.2475 69.8787 67.3388 64.6974 70.1241 61.7667C73.6636 57.7056 80.713 57.6278 84.3345 61.6279C88.2057 65.9158 88.693 72.7888 85.7152 77.7031C83.4813 81.5608 79.4544 84.3463 75.0278 84.9758C70.212 85.6895 65.0101 84.1636 61.6259 80.5929C55.0063 73.8515 55.1112 61.9968 61.4262 55.0896C63.1146 53.0692 65.3452 51.6309 67.5822 50.2975C67.0982 49.6444 66.5906 49.0081 66.0758 48.3753C61.7305 51.526 57.1858 54.3891 52.5088 57.0186C51.7169 57.3097 51.859 58.264 51.7439 58.9375C51.3277 64.6941 50.8369 70.694 47.9739 75.8384C46.0381 79.4727 43.1107 82.8031 39.185 84.299C36.0715 85.4733 32.3049 85.5779 29.4486 83.6861C26.7141 81.9703 25.4721 78.5457 25.6819 75.4251C26.1151 71.4554 28.3724 67.8715 31.2422 65.178C35.1815 61.5802 39.9566 59.0932 44.6438 56.6227C45.5981 56.0913 46.6371 55.6886 47.4899 55.0016C47.8047 54.142 47.8521 53.2178 47.94 52.3179C45.5102 53.7867 42.4407 54.9678 39.6453 53.8408C37.3609 52.9609 35.9395 50.7747 35.2119 48.5343C33.0562 48.3042 30.8869 47.4446 29.5129 45.7051C27.1168 42.8319 26.9645 38.4628 28.6973 35.2241C29.276 34.0566 30.5755 33.4305 31.848 33.5083C32.095 34.0092 32.5587 34.5067 32.3895 35.1158C32.0104 37.2174 31.2727 39.4003 31.9698 41.529C32.315 42.9842 33.5198 44.145 35.0156 44.3446C35.3338 40.8995 36.0038 37.4408 37.6249 34.3442C39.1512 31.3319 41.2359 28.4113 44.2681 26.7767ZM46.2953 30.1474C44.2512 31.5383 43.0058 33.7618 41.9296 35.9243C40.7722 38.3644 39.8382 40.9871 39.7333 43.7081C40.515 43.3629 41.2528 42.9128 41.8856 42.3341C44.4441 40.1072 46.6811 37.454 48.1803 34.3946C48.7083 33.288 49.1651 32.0324 48.8639 30.7938C48.4747 29.7887 47.1177 29.5247 46.2953 30.1474ZM72.7499 31.2101C70.3603 33.9919 69.0479 37.6807 69.0881 41.3459C71.7823 39.1224 74.2664 36.5166 75.9412 33.4268C76.4218 32.4386 77.0584 30.8243 75.8397 30.1034C74.7297 29.5315 73.4775 30.3708 72.7499 31.2101ZM36.5216 66.7615C34.1733 68.8695 31.8818 71.3268 31.0293 74.4434C30.6198 76.1152 30.5251 78.2273 31.9295 79.4723C33.4118 80.826 35.6454 80.4233 37.3579 79.7803C40.6609 78.5078 42.6542 75.3097 43.9977 72.203C45.5646 68.345 46.5359 64.2365 46.9319 60.0908C43.1818 61.8239 39.6791 64.1052 36.5216 66.7615Z" fill="#3C3C3C"/>
<path d="M52.4489 0.156249C63.4984 -0.686426 74.7747 1.89575 84.3656 7.44251C92.0377 11.8657 98.6708 18.1062 103.473 25.555C109.436 34.6619 112.59 45.5626 112.498 56.4463C112.428 67.8207 108.807 79.1545 102.19 88.4175C95.4794 97.9167 85.7227 105.233 74.7104 108.976C64.9303 112.361 54.212 112.892 44.1203 110.632C33.5377 108.273 23.7065 102.706 16.1868 94.8983C8.21688 86.6438 2.8224 75.8989 1.17428 64.5312C-0.446775 54.4056 0.893384 43.8434 4.84956 34.3946C8.52146 25.6057 14.5014 17.8152 21.9873 11.9368C30.6645 5.09385 41.4196 0.921087 52.4489 0.156249ZM52.4353 2.84333C45.8699 3.31374 39.4128 5.07016 33.4765 7.90954C23.9262 12.5121 15.76 19.9913 10.4637 29.1829C2.57535 42.4423 1.05244 59.2214 6.22356 73.7363C9.54011 83.1753 15.5979 91.5953 23.429 97.8084C32.5292 105.027 44.039 109.186 55.6639 109.284C64.1516 109.471 72.6798 107.542 80.2568 103.721C89.912 98.9425 98.0241 91.1283 103.209 81.6927C108.39 72.3251 110.664 61.3504 109.51 50.7002C107.977 33.4169 97.181 17.4027 81.9455 9.1925C73.0115 4.2681 62.608 2.0142 52.4353 2.84333Z" fill="#868686"/>
<path d="M43.0092 7.90956C52.3158 5.31047 62.3873 5.42215 71.5924 8.39351C71.9918 8.51872 72.2997 8.81315 72.6145 9.07712C71.095 8.96544 69.701 8.27844 68.2082 8.02124C64.4449 7.26994 60.5459 6.89767 56.7323 7.46623C54.343 7.89602 51.8353 8.81992 50.3191 10.8166C49.1786 12.2989 49.0568 14.6273 50.38 16.0351C51.8488 17.5885 54.4547 17.5039 56.0825 16.2483C58.0047 14.8371 59.8691 13.1551 62.2685 12.6306C67.1452 11.4224 72.2591 12.3937 76.9832 13.7981C82.6552 15.3447 88.0192 18.1435 92.3717 22.1132C99.6241 28.5196 103.983 37.7179 105.638 47.1498C107.079 55.1975 106.646 63.6073 104.148 71.4046C104.06 71.7701 103.827 71.9833 103.448 72.0409C104.897 66.7313 105.973 61.0962 104.89 55.6138C104.321 52.9673 103.018 49.9824 100.233 49.0788C98.1012 48.3241 95.5055 49.7895 95.3332 52.1077C94.9268 54.5884 96.9539 56.3752 98.2166 58.2332C100.927 62.125 100.592 67.1709 99.9293 71.6351C98.6836 77.679 96.6666 83.6965 93.0049 88.7323C87.3535 96.8443 78.3514 102.198 68.838 104.486C60.5703 106.462 51.8089 106.449 43.5547 104.415C42.4684 104.09 41.2331 103.944 40.3904 103.112C41.9641 103.108 43.4227 103.792 44.9625 104.035C49.1692 104.8 53.5653 105.274 57.7685 104.222C59.6735 103.697 61.6028 102.79 62.8005 101.159C63.9106 99.6359 63.8872 97.3042 62.523 95.9437C61.3423 94.6983 59.376 94.4415 57.8663 95.2263C56.073 96.1976 54.702 97.7953 52.8715 98.7124C49.1793 100.506 44.8949 100.242 40.9556 99.5788C34.424 98.2961 27.9703 95.9271 22.7044 91.7608C15.7119 86.3866 10.8691 78.5488 8.49672 70.1085C5.98561 61.2722 5.96869 51.7761 8.25982 42.8924C8.65577 41.9719 8.50348 40.5201 9.5526 40.0835C8.21244 45.1599 7.15317 50.4799 7.96877 55.739C8.38165 58.0741 9.20064 60.548 11.133 62.0638C12.4732 63.1708 14.568 63.5769 16.0503 62.5139C17.6308 61.5903 18.1519 59.3974 17.4176 57.776C16.646 55.9488 15.0791 54.6185 14.1822 52.859C12.2431 49.3157 12.4563 45.0854 12.9707 41.2071C14.0536 34.9936 16.162 28.8546 19.8271 23.67C25.269 15.7847 33.8345 10.3868 43.0092 7.90956ZM44.2681 26.7767C41.2358 28.4113 39.1511 31.3319 37.6248 34.3438C36.0038 37.4404 35.3337 40.8991 35.0156 44.3443C33.5198 44.1446 32.315 42.9838 31.9698 41.5286C31.2726 39.3999 32.0104 37.2171 32.3894 35.1154C32.5586 34.5063 32.095 34.0088 31.848 33.5079C30.5755 33.4301 29.2759 34.0562 28.6972 35.2237C26.9645 38.4625 27.1168 42.8315 29.5128 45.7047C30.8872 47.4442 33.0561 48.3038 35.2119 48.534C35.9395 50.7743 37.3609 52.9605 39.6452 53.8404C42.4406 54.9674 45.5101 53.7863 47.94 52.3175C47.852 53.2177 47.8046 54.1416 47.4899 55.0012C46.6371 55.6882 45.5981 56.091 44.6438 56.6223C39.9566 59.0928 35.1814 61.5798 31.2422 65.1776C28.3723 67.8711 26.1151 71.4551 25.6819 75.4248C25.472 78.5454 26.7141 81.9699 29.4485 83.6857C32.3045 85.5775 36.0715 85.4726 39.185 84.2986C43.1107 82.8027 46.0381 79.4723 47.9738 75.838C50.8369 70.6936 51.3276 64.6933 51.7439 58.9371C51.8589 58.2636 51.7168 57.3093 52.5087 57.0182C57.1857 54.3883 61.7308 51.5256 66.0758 48.3749C66.5905 49.0077 67.0982 49.644 67.5821 50.2971C65.3451 51.6305 63.1146 53.0688 61.4262 55.0892C55.1112 61.9964 55.0063 73.8511 61.6259 80.5925C65.0101 84.1632 70.2117 85.6895 75.0278 84.9754C79.4544 84.3459 83.4813 81.5604 85.7152 77.7027C88.693 72.7884 88.2057 65.9154 84.3344 61.6276C80.713 57.6274 73.6636 57.7052 70.124 61.7663C67.3388 64.6971 67.2474 69.8783 70.1545 72.7478C71.3322 73.9225 73.383 74.6329 74.8619 73.621C75.8163 72.9343 75.7249 71.4655 74.9564 70.6699C73.9617 69.4685 72.7837 68.0776 73.0818 66.399C73.3793 64.2162 75.8197 62.8794 77.8739 63.3434C79.6334 63.6175 81.0382 64.9912 81.691 66.6021C83.2312 70.2672 82.358 74.8088 79.5931 77.6621C76.6624 80.718 71.5654 81.1986 68.0292 78.9346C64.8883 77.0022 63.1014 73.4182 62.5498 69.8614C61.9714 65.5736 62.7938 60.9473 65.4534 57.4514C67.1662 55.2378 69.5555 53.4208 72.3031 52.7639C74.6112 52.9399 77.0042 53.3562 79.2645 52.6184C80.3275 52.2563 81.3624 51.065 80.8213 49.9008C80.2361 48.7062 78.7978 48.3475 77.5995 48.097C75.8092 47.7417 74.0287 48.2189 72.2791 48.5539C71.0577 48.1343 70.411 46.8516 69.9579 45.7213C73.3556 43.1831 76.7128 40.425 79.0205 36.814C80.361 34.6447 81.2341 31.9813 80.6047 29.433C80.1072 27.7442 78.723 26.3093 76.9565 25.9878C74.0125 25.2467 71.0002 26.7324 69.0001 28.8407C65.7851 32.3299 64.1539 37.166 64.3028 41.8836C64.2588 42.8582 64.6375 43.8803 64.3603 44.8177C61.9507 46.7603 59.2569 48.3238 56.6612 50.0024C55.1687 50.8691 53.7474 51.8671 52.1635 52.5676C52.1906 51.065 52.2684 49.5421 52.6982 48.0937C53.8387 46.5335 55.2736 45.1764 56.1806 43.4437C56.8439 42.2491 57.47 40.7363 56.7796 39.4165C56.1468 38.4384 54.7457 38.5332 53.8286 39.0205C51.8725 40.0019 50.7997 42.0731 50.0112 44.0157C49.4697 45.2577 49.4088 46.7975 48.2514 47.6774C46.6405 49.0852 44.6979 50.4999 42.4575 50.4186C41.1783 50.4254 40.3255 49.2206 40.0547 48.0903C43.5946 46.7159 46.5491 44.1507 48.9451 41.2541C51.1618 38.4046 52.925 35.0407 53.2228 31.3924C53.3886 29.5548 52.7321 27.4735 51.0535 26.5124C48.9553 25.3688 46.3257 25.6937 44.2681 26.7767Z" fill="#868686"/>
<path d="M46.2953 30.1474C47.1177 29.5247 48.4748 29.7887 48.864 30.7938C49.1652 32.0325 48.7083 33.288 48.1803 34.3947C46.6811 37.454 44.4442 40.1072 41.8857 42.3341C41.2528 42.9128 40.5151 43.3629 39.7333 43.7081C39.8382 40.9872 40.7723 38.3644 41.9297 35.9243C43.0058 33.7618 44.2513 31.5384 46.2953 30.1474ZM72.7499 31.2101C73.4775 30.3708 74.7297 29.5315 75.8397 30.1034C77.0584 30.8243 76.4218 32.4386 75.9412 33.4268C74.2664 36.5166 71.7824 39.1224 69.0882 41.3459C69.0479 37.6808 70.3603 33.9919 72.7499 31.2101ZM36.5217 66.7615C39.6791 64.1049 43.1818 61.8239 46.9316 60.0912C46.5356 64.2369 45.5643 68.3453 43.9974 72.2034C42.6539 75.3101 40.6606 78.5082 37.3576 79.7807C35.6451 80.4233 33.4115 80.8264 31.9292 79.4727C30.5248 78.2273 30.6195 76.1155 31.029 74.4437C31.8819 71.3268 34.173 68.8699 36.5217 66.7615Z" fill="#868686"/>
</g>
<defs>
<clipPath id="clip0">
<rect width="112" height="112" fill="white" transform="translate(0.5)"/>
</clipPath>
</defs>
</svg>
