<svg width="171" height="81" viewBox="0 0 171 81" fill="none" xmlns="http://www.w3.org/2000/svg">
<path d="M40.7296 80.8203C63.2146 80.8203 81.4441 62.7678 81.4441 40.5C81.4441 18.2322 63.2156 0.179688 40.7296 0.179688C18.2436 0.179688 0.0150146 18.2322 0.0150146 40.5C0.0150146 62.7678 18.2436 80.8203 40.7296 80.8203Z" fill="#868686"/>
<path d="M50.6434 54.6912H42.212V23.1324H39.0852V57.8052H42.212V57.7847H50.6434V54.6912Z" fill="#3C3C3C"/>
<path d="M71.6886 41.7903H50.6933V38.6937H74.7638C74.7958 39.2924 74.8113 39.8921 74.8113 40.499C74.8113 59.141 59.5517 74.2522 40.7289 74.2522C21.9062 74.2522 6.64661 59.141 6.64661 40.499C6.64661 21.8569 21.9062 6.74573 40.73 6.74573C41.2262 6.74573 41.7214 6.75594 42.2134 6.7774L42.2093 9.85052C41.7165 9.82799 41.2233 9.81675 40.73 9.81681C23.6197 9.81681 9.74763 23.5539 9.74763 40.499C9.74763 57.4451 23.6187 71.1812 40.73 71.1812C57.374 71.1812 70.952 58.1837 71.6804 41.8772L71.6886 41.7903Z" fill="#3C3C3C"/>
<path d="M28.0173 32.4735C29.2875 32.4735 30.5056 31.9738 31.4038 31.0843C32.3019 30.1949 32.8065 28.9885 32.8065 27.7305C32.8065 26.4726 32.3019 25.2662 31.4038 24.3767C30.5056 23.4873 29.2875 22.9875 28.0173 22.9875C26.7471 22.9875 25.5289 23.4873 24.6308 24.3767C23.7326 25.2662 23.228 26.4726 23.228 27.7305C23.228 28.9885 23.7326 30.1949 24.6308 31.0843C25.5289 31.9738 26.7471 32.4735 28.0173 32.4735Z" fill="#3C3C3C"/>
<path d="M101.66 60.2914H130.752V51.5901H112.341V20.4318H101.66V60.2914ZM165.902 23.2383C162.567 20.6791 158.272 19.3816 153.147 19.3816C147.062 19.3816 141.977 21.2328 138.442 24.7309C134.752 28.3874 132.798 33.7735 132.798 40.307C132.798 47.2869 134.863 53.1767 138.613 56.8873C141.557 59.8021 145.479 61.3396 149.968 61.3396C159.821 61.3396 162.087 55.4907 162.087 55.4907V60.2894H170.985V37.7784H153.273V44.8227H161.425C161.425 44.8227 161.504 53.6916 153.09 53.6916C150.952 53.6916 149.048 52.9233 147.583 51.4726C145.3 49.2137 144.093 45.407 144.093 40.4725C144.093 32.2993 147.374 27.4199 152.866 27.4199C156.297 27.4199 158.876 29.5061 159.537 32.6681H170.868C170.281 28.0738 169.008 25.679 165.902 23.2383Z" fill="#868686"/>
</svg>
