<svg width="201" height="68" viewBox="0 0 201 68" fill="none" xmlns="http://www.w3.org/2000/svg">
<g clip-path="url(#clip0)">
<path d="M200.375 16.6015C197.656 0.980276 150.738 -3.89462 95.5768 5.71268C72.4111 9.74952 51.4937 15.7036 35.2042 22.4021C37.7065 22.4569 39.5622 23.0309 40.6898 24.156C41.5714 25.0389 42.0167 26.2506 42.0167 27.7603V29.3099H36.6078V27.9417C36.6078 26.8017 35.9244 26.0952 34.7141 26.0952C33.6971 26.0952 33.0705 26.5546 32.8683 27.4594C32.8006 27.8171 32.808 28.185 32.8903 28.5396C33.469 30.9063 41.5007 32.3762 42.3743 36.7438C42.4888 37.3059 42.6442 38.5086 42.3992 40.2296C41.8981 43.7523 38.8042 45.1115 34.8655 45.1115C29.368 45.1115 27.1347 42.5066 27.1347 38.9152L27.1387 37.2162H32.9371L32.9401 39.3328C32.9401 40.5226 33.8047 41.1793 34.9821 41.1793C36.0977 41.1793 36.7492 40.7299 36.9743 39.8111C37.0789 39.3886 37.1247 38.7657 36.9345 38.2894C35.8617 35.5969 28.3619 34.3393 27.4385 29.9855C27.2323 29.007 27.2154 28.1739 27.3867 27.1206C27.4746 26.5985 27.6363 26.0915 27.8668 25.6149C9.79832 34.0682 -0.771457 43.3696 0.625096 51.4004C3.34748 67.0236 50.2645 71.8935 105.424 62.2862C129.672 58.064 151.471 51.7432 168.061 44.6601C167.821 44.672 167.588 44.6979 167.339 44.6979C163.564 44.6979 160.193 43.2829 159.843 39.4224C159.781 38.7199 159.77 38.4259 159.768 38.0253L159.77 29.1505C159.77 28.7678 159.815 28.0962 159.858 27.7494C160.305 24.0185 163.254 22.4799 167.341 22.4799C170.504 22.4799 174.381 23.3877 174.808 27.7524C174.865 28.3004 174.859 28.8854 174.858 29.0777V29.9158H169.395V28.6652C169.395 28.6383 169.387 28.1709 169.327 27.8789C169.237 27.4335 168.858 26.4011 167.302 26.4011C165.765 26.4011 165.367 27.4355 165.267 27.8799C165.21 28.1241 165.183 28.4748 165.183 28.8635V38.5086C165.178 38.8435 165.195 39.1055 165.229 39.2979C165.256 39.4493 165.532 40.7787 167.321 40.7787C169.097 40.7787 169.372 39.4493 169.397 39.2979C169.444 39.0368 169.45 38.7259 169.448 38.5086V35.5201H167.298V32.3014H174.899V38.0273C174.897 38.417 174.891 38.705 174.826 39.4224C174.734 40.4349 174.415 41.2919 173.915 42.0243C191.51 33.6666 201.754 24.5157 200.375 16.6015ZM57.3449 44.2874L54.5777 25.4773H54.4781L51.6401 44.2874H45.8079L49.7306 23.0449H59.2465L63.1452 44.2874H57.3449ZM85.3975 44.2874L85.269 25.8411H85.1753L81.7437 44.2874H76.2701L72.8554 25.8411H72.7578L72.6332 44.2874H67.2094L67.6796 23.0449H76.4035L78.9436 38.8245H79.0681L81.6152 23.0449H90.3352L90.8034 44.2874H85.3975ZM110.939 40.1708C110.355 44.2854 106.326 45.0049 103.478 45.0049C98.7494 45.0049 95.8248 42.9829 95.8248 38.8684L95.8278 37.1903H101.556L101.56 39.2809C101.56 40.416 102.36 41.1105 103.595 41.1105C104.697 41.1105 105.343 40.6681 105.567 39.7593C105.67 39.3357 105.713 38.7179 105.53 38.2515C104.474 35.6098 97.0331 34.3153 96.1286 30.0294C95.9214 29.0578 95.9065 28.2327 96.0768 27.1903C96.7064 23.305 100.434 22.4978 103.434 22.4978C106.118 22.4978 108.071 23.0837 109.242 24.2556C110.116 25.1306 110.558 26.3314 110.558 27.8251V29.3577H105.201V28.0055C105.201 26.8475 104.483 26.1779 103.329 26.1779C102.305 26.1779 101.685 26.6333 101.482 27.5292C101.416 27.8831 101.425 28.247 101.508 28.5974C102.081 30.9531 110.042 32.3931 110.914 36.7199C111.027 37.272 111.181 38.4568 110.939 40.1708ZM130.779 38.2406C130.787 38.6392 130.749 39.4354 130.727 39.6397C130.4 43.1394 127.898 44.9182 123.309 44.9182C118.702 44.9182 116.197 43.1394 115.873 39.6397C115.836 39.1756 115.818 38.7101 115.82 38.2446V23.0399H121.3V38.7239C121.294 39.0747 121.312 39.3337 121.347 39.5141C121.415 39.8629 121.762 40.9949 123.309 40.9949C124.851 40.9949 125.197 39.8619 125.27 39.5181C125.301 39.3328 125.32 39.0607 125.32 38.7229V23.0399H130.779V38.2406ZM154.392 44.0711H146.766L141.647 27.2451H141.561L141.845 44.0711H136.53V23.0449H144.476L149.208 39.2082H149.318L149.038 23.0449H154.392V44.0711Z" fill="#868686"/>
</g>
<defs>
<clipPath id="clip0">
<rect width="200" height="66.426" fill="white" transform="translate(0.5 0.786987)"/>
</clipPath>
</defs>
</svg>
